<svg xmlns="http://www.w3.org/2000/svg" enable-background="new 0 0 24 24" viewBox="0 0 24 24" id="html"><path fill="#E44D26" d="M3.886,21.001L2.08,0.75H21.92l-1.807,20.248l-8.124,2.252L3.886,21.001z"></path><path fill="#F16529" d="M12,21.528l6.565-1.82L20.11,2.406H12V21.528z"></path><path d="M11.975,24c-0.081,0-0.162-0.013-0.24-0.039l-7.952-2.68c-0.282-0.095-0.481-0.348-0.507-0.644L1.503,0.817c-0.019-0.21,0.052-0.417,0.194-0.573C1.839,0.088,2.04,0,2.25,0h19.5c0.21,0,0.411,0.088,0.553,0.244c0.142,0.156,0.212,0.363,0.194,0.573l-1.772,19.82c-0.026,0.297-0.227,0.55-0.509,0.644l-8.003,2.68C12.136,23.987,12.055,24,11.975,24z M4.726,20.016l7.25,2.443l7.299-2.444L20.93,1.5H3.071L4.726,20.016z M19.978,20.57h0.01H19.978z"></path><path d="M11.75,19c-0.097,0-0.195-0.019-0.287-0.057l-4.243-1.754c-0.244-0.101-0.417-0.322-0.456-0.583l-0.257-1.746c-0.06-0.41,0.223-0.791,0.633-0.852c0.407-0.063,0.791,0.223,0.852,0.633l0.195,1.325l3.563,1.473l3.556-1.47l0.589-4.469H6.96c-0.403,0-0.735-0.319-0.75-0.723L6,5.027C5.993,4.824,6.069,4.626,6.21,4.479C6.352,4.333,6.546,4.25,6.75,4.25h10.5C17.664,4.25,18,4.586,18,5s-0.336,0.75-0.75,0.75H7.528L7.683,10h9.067c0.216,0,0.421,0.093,0.564,0.255c0.143,0.163,0.208,0.378,0.18,0.593l-0.757,5.746c-0.035,0.266-0.209,0.493-0.457,0.595l-4.243,1.754C11.945,18.981,11.847,19,11.75,19z"></path></svg>